#N canvas 591 204 601 300 12;
#X obj 158 17 bng 15 250 50 0 empty empty empty 17 7 0 10 -262144 -1
-1;
#X obj 158 40 f;
#X obj 158 63 + 1;
#X obj 211 48 mod 8;
#X obj 158 109 tabread notes;
#X obj 158 132 mtof;
#X obj 158 155 osc~;
#X obj 158 178 dac~;
#N canvas 0 22 450 278 (subpatch) 0;
#X array notes 9 float 3;
#A 0 60 62 64 65 67 69 71 72 72;
#X coords 0 128 9 0 200 140 1 0 0;
#X restore 320 112 graph;
#X obj 158 86 - 1;
#X msg 324 62 \; notes 0 60 62 64 65 67 69 71 72;
#X obj 324 39 loadbang;
#X connect 0 0 1 0;
#X connect 1 0 2 0;
#X connect 2 0 3 0;
#X connect 2 0 9 0;
#X connect 3 0 1 1;
#X connect 4 0 5 0;
#X connect 5 0 6 0;
#X connect 6 0 7 0;
#X connect 6 0 7 1;
#X connect 9 0 4 0;
#X connect 11 0 10 0;
