#N canvas 633 222 450 300 12;
#X obj 95 75 hsl 128 15 30 240 0 0 empty empty metro -2 -8 0 10 -262144
-1 -1 2600 1;
#X obj 92 135 metro;
#X msg 92 110 tempo \$1 permin;
#X floatatom 37 112 5 0 0 0 - - -;
#X obj 44 12 loadbang;
#X msg 44 35 60;
#X obj 74 237 line~;
#X msg 79 194 1 10;
#X obj 125 192 del 10;
#X msg 125 215 0 200;
#X obj 92 158 t b b;
#X obj 12 159 noise~;
#X obj 52 262 *~;
#X obj 52 285 dac~;
#X text 185 197 attack and release;
#X text 222 108 metro in bpm;
#X connect 0 0 2 0;
#X connect 0 0 3 0;
#X connect 1 0 10 0;
#X connect 2 0 1 0;
#X connect 4 0 5 0;
#X connect 5 0 0 0;
#X connect 6 0 12 1;
#X connect 7 0 6 0;
#X connect 8 0 9 0;
#X connect 9 0 6 0;
#X connect 10 0 7 0;
#X connect 10 1 8 0;
#X connect 11 0 12 0;
#X connect 12 0 13 0;
#X connect 12 0 13 1;
