#N canvas 298 254 450 300 12;
#X obj 178 58 bng 15 250 50 0 empty empty empty 17 7 0 10 -262144 -1
-1;
#X obj 178 127 mtof;
#X obj 178 150 osc~;
#X obj 178 173 dac~;
#X obj 178 81 random 30;
#X obj 178 104 + 50;
#X connect 0 0 4 0;
#X connect 1 0 2 0;
#X connect 2 0 3 0;
#X connect 2 0 3 1;
#X connect 4 0 5 0;
#X connect 5 0 1 0;
